# xmcd
# 
# Track frame offsets:
#     150
#     24920
#     37448
#     53229
#     60717
#     80198
#     92466
#     112781
#     131367
#     151037
#     170129
# 
# Disc length: 2608
# 
# Revision: 0
# Processed by: cddbd v1.5.2PL0 Copyright (c) Steve Scherf et al.
# Submitted via: fre:ac v1.0.17
# 
DISCID=880a2e0b
DTITLE=Conor Gains Band - Run Away with the Night
DYEAR=2014
DGENRE=Blues
TTITLE0=Moonshine Models
TTITLE1=Run Away with the Night
TTITLE2=Evil Man
TTITLE3=Bigger and Better Things
TTITLE4=Deja Voodoo
TTITLE5=Just My Advice
TTITLE6=First Impressions
TTITLE7=Radio Loud
TTITLE8=The Ballad of Fitzwilliam
TTITLE9=Like an Old Song
TTITLE10=Leave it on the Line
EXTD=
EXTT0=
EXTT1=
EXTT2=
EXTT3=
EXTT4=
EXTT5=
EXTT6=
EXTT7=
EXTT8=
EXTT9=
EXTT10=
PLAYORDER=
